<svg version="1.1" xmlns="http://www.w3.org/2000/svg" xmlns:xlink="http://www.w3.org/1999/xlink" width="162.14363" height="126.80437" viewBox="0,0,162.14363,126.80437"><g transform="translate(-161.42819,-109.44952)"><g data-paper-data="{&quot;isPaintingLayer&quot;:true}" fill-rule="nonzero" stroke-linejoin="miter" stroke-miterlimit="10" stroke-dasharray="" stroke-dashoffset="0" style="mix-blend-mode: normal"><g><path d="M161.42819,236.25389v-126.80437h162.14363v126.80437z" fill="#21304a" stroke="none" stroke-width="0" stroke-linecap="butt"/><path d="M174.61043,161.21345v-12.6298h6.5254v12.6298z" fill="#21304a" stroke="none" stroke-width="0" stroke-linecap="butt"/><path d="M242.96995,165.16096v-12.6298h6.5254v12.6298z" fill="#21304a" stroke="none" stroke-width="0" stroke-linecap="butt"/><g><path d="M207.50909,195.25228v-38.89965c0,0 22.09296,-30.84538 32.22901,-30.84538c10.45512,0 29.57417,30.84538 29.57417,30.84538v38.89965z" fill="#3d5888" stroke="#000000" stroke-width="0" stroke-linecap="butt"/><path d="M211.95626,199.52723v-86.12765h3.78894v86.12765z" fill="#21304a" stroke="none" stroke-width="0" stroke-linecap="butt"/><path d="M219.27173,204.52723v-86.12764h3.78894v86.12765z" fill="#21304a" stroke="none" stroke-width="0" stroke-linecap="butt"/><path d="M227.42918,209.52723v-86.12764h3.78894v86.12765z" fill="#21304a" stroke="none" stroke-width="0" stroke-linecap="butt"/><path d="M236.42861,212.12765v-86.12765h3.78894v86.12765z" fill="#21304a" stroke="none" stroke-width="0" stroke-linecap="butt"/><path d="M238.89196,122.51994l-31.62868,34.2474" fill="#ffffff" stroke="#ffffff" stroke-width="6" stroke-linecap="round"/><path d="M269.70388,156.96734l-30.53804,-34.2474" data-paper-data="{&quot;index&quot;:null}" fill="#ffffff" stroke="#ffffff" stroke-width="6" stroke-linecap="round"/><path d="M244.88728,159.77613l0.26662,-12.79772l9.33167,2.93281l0.26662,11.73125z" fill="#21304a" stroke="none" stroke-width="0" stroke-linecap="butt"/><path d="M207.04841,176.2692c0,0 20.44985,-7.81539 30.53192,-7.72205c10.46708,0.09691 31.15884,8.29326 31.15884,8.29326" fill="none" stroke="#21304a" stroke-width="14" stroke-linecap="round"/><path d="M208.32151,176.25906c0,0 20.44984,-7.8154 30.53191,-7.72204c10.46708,0.09692 31.15884,8.29325 31.15884,8.29325" fill="none" stroke="#ffffff" stroke-width="7.5" stroke-linecap="round"/></g><g fill="#ffffff" stroke="none" stroke-width="1" stroke-linecap="butt" font-family="Sans Serif" font-weight="normal" font-size="40" text-anchor="start"><text transform="translate(167.64124,211.5818) scale(0.34995,0.37623)" font-size="40" xml:space="preserve" fill="#ffffff" fill-rule="nonzero" stroke="none" stroke-width="1" stroke-linecap="butt" stroke-linejoin="miter" stroke-miterlimit="10" stroke-dasharray="" stroke-dashoffset="0" font-family="Sans Serif" font-weight="normal" text-anchor="start" style="mix-blend-mode: normal"><tspan x="0" dy="0">GOVIND SHUTTERING</tspan></text><text transform="translate(167.50034,224.00753) scale(0.34996,0.37623)" font-size="40" xml:space="preserve" fill="#ffffff" fill-rule="nonzero" stroke="none" stroke-width="1" stroke-linecap="butt" stroke-linejoin="miter" stroke-miterlimit="10" stroke-dasharray="" stroke-dashoffset="0" font-family="Sans Serif" font-weight="normal" text-anchor="start" style="mix-blend-mode: normal"><tspan x="0" dy="0">              HOUSE</tspan></text></g></g></g></g></svg>