<svg version="1.1" xmlns="http://www.w3.org/2000/svg" xmlns:xlink="http://www.w3.org/1999/xlink" width="123" height="126.23684" viewBox="0,0,123,126.23684"><g transform="translate(-178.5,-116.88158)"><g data-paper-data="{&quot;isPaintingLayer&quot;:true}" fill-rule="nonzero" stroke-linejoin="miter" stroke-miterlimit="10" stroke-dasharray="" stroke-dashoffset="0" style="mix-blend-mode: normal"><path d="M242.96995,165.16096v-12.6298h6.5254v12.6298z" fill="#21304a" stroke="none" stroke-width="0" stroke-linecap="butt"/><path d="M301.5,180c0,34.85934 -27.53449,63.11842 -61.5,63.11842c-33.96551,0 -61.5,-28.25908 -61.5,-63.11842c0,-34.85934 27.53449,-63.11842 61.5,-63.11842c33.96551,0 61.5,28.25908 61.5,63.11842z" fill="#21304a" stroke="none" stroke-width="0" stroke-linecap="butt"/><g><path d="M208.97876,212.48867v-38.89965c0,0 22.09296,-30.84538 32.22901,-30.84538c10.45512,0 29.57417,30.84538 29.57417,30.84538v38.89965z" fill="#3d5888" stroke="#000000" stroke-width="0" stroke-linecap="butt"/><path d="M213.42593,216.76362v-86.12765h3.78894v86.12765z" fill="#21304a" stroke="none" stroke-width="0" stroke-linecap="butt"/><path d="M220.7414,221.76362v-86.12764h3.78894v86.12765z" fill="#21304a" stroke="none" stroke-width="0" stroke-linecap="butt"/><path d="M228.89885,226.76362v-86.12764h3.78894v86.12765z" fill="#21304a" stroke="none" stroke-width="0" stroke-linecap="butt"/><path d="M237.89828,229.36404v-86.12765h3.78894v86.12765z" fill="#21304a" stroke="none" stroke-width="0" stroke-linecap="butt"/><path d="M240.36163,139.75633l-31.62868,34.2474" fill="#ffffff" stroke="#ffffff" stroke-width="6" stroke-linecap="round"/><path d="M271.17355,174.20373l-30.53804,-34.2474" data-paper-data="{&quot;index&quot;:null}" fill="#ffffff" stroke="#ffffff" stroke-width="6" stroke-linecap="round"/><path d="M246.35695,177.01252l0.26662,-12.79772l9.33167,2.93281l0.26662,11.73125z" fill="#21304a" stroke="none" stroke-width="0" stroke-linecap="butt"/><path d="M208.51808,193.50559c0,0 20.44985,-7.81539 30.53192,-7.72205c10.46708,0.09691 31.15884,8.29326 31.15884,8.29326" fill="none" stroke="#21304a" stroke-width="14" stroke-linecap="round"/><path d="M209.79118,193.49545c0,0 20.44984,-7.8154 30.53191,-7.72204c10.46708,0.09692 31.15884,8.29325 31.15884,8.29325" fill="none" stroke="#ffffff" stroke-width="7.5" stroke-linecap="round"/></g></g></g></svg>